<svg width="260" height="260" viewBox="0 0 260 260" fill="none" xmlns="http://www.w3.org/2000/svg">
<path d="M40 1.5H258.5V220C258.5 241.263 241.263 258.5 220 258.5H40C18.737 258.5 1.5 241.263 1.5 220V40C1.5 18.737 18.737 1.5 40 1.5Z" fill="white" stroke="black" stroke-width="3"/>
<path d="M119.169 69.3313H163.63C173.716 69.3313 182.233 70.8192 189.182 73.7957C196.192 76.7718 201.511 81.1767 205.14 87.0099C208.829 92.7838 210.674 99.897 210.674 108.349C210.674 114.302 209.414 119.748 206.892 124.689C204.432 129.57 200.866 133.737 196.192 137.189C191.58 140.582 186.045 143.111 179.588 144.778L174.607 146.653H132.821L132.637 132.635H164.184C170.579 132.635 175.899 131.564 180.142 129.421C184.385 127.219 187.583 124.272 189.735 120.582C191.888 116.891 192.964 112.814 192.964 108.349C192.964 103.349 191.949 98.9744 189.92 95.2244C187.89 91.4742 184.692 88.5874 180.326 86.5636C176.022 84.4802 170.456 83.4385 163.63 83.4385H136.972V199.332H119.169V69.3313ZM197.668 199.332L165.014 140.403L183.555 140.314L216.67 198.261V199.332H197.668Z" fill="#9E896A"/>
<path d="M60.1923 69.3333V199.334H43.3306V69.3333H60.1923ZM136.987 69.3333L84.1308 129.959L54.4262 161.477L51.6304 143.084L73.9963 117.905L116.718 69.3333H136.987ZM120.737 199.334L73.6468 135.941L83.6939 122.28L140.831 199.334H120.737Z" fill="#33332C"/>
</svg>
