<svg width="16" height="16" viewBox="0 0 16 16" fill="none" xmlns="http://www.w3.org/2000/svg">
<path d="M3 0.25H15.75V13C15.75 14.5188 14.5188 15.75 13 15.75H3C1.48122 15.75 0.25 14.5188 0.25 13V3C0.25 1.48122 1.48122 0.25 3 0.25Z" fill="white" stroke="black" stroke-width="0.5"/>
<path d="M7.3335 4.26654H10.0696C10.6902 4.26654 11.2143 4.35811 11.6419 4.54127C12.0734 4.72442 12.4007 4.99549 12.624 5.35445C12.851 5.70977 12.9646 6.14751 12.9646 6.66765C12.9646 7.03396 12.887 7.36912 12.7318 7.67316C12.5805 7.97353 12.361 8.22994 12.0734 8.4424C11.7895 8.65119 11.4489 8.80686 11.0516 8.90943L10.7451 9.02481H8.1736L8.16225 8.16218H10.1036C10.4972 8.16218 10.8245 8.09623 11.0857 7.96436C11.3468 7.82884 11.5436 7.64751 11.676 7.4204C11.8085 7.19331 11.8747 6.94238 11.8747 6.66765C11.8747 6.35997 11.8122 6.09073 11.6874 5.85996C11.5625 5.62918 11.3657 5.45153 11.097 5.32699C10.8321 5.19878 10.4896 5.13467 10.0696 5.13467H8.42904V12.2666H7.3335V4.26654ZM12.1642 12.2666L10.1547 8.6402L11.2957 8.6347L13.3335 12.2007V12.2666H12.1642Z" fill="#9E896A"/>
<path d="M3.70415 4.26666V12.2667H2.6665V4.26666H3.70415ZM8.42999 4.26666L5.17729 7.99746L3.34931 9.93703L3.17726 8.80516L4.55363 7.2557L7.18267 4.26666H8.42999ZM7.42998 12.2667L4.53212 8.36559L5.1504 7.52493L8.66655 12.2667H7.42998Z" fill="#33332C"/>
</svg>
