<svg width="1649" height="720" viewBox="0 0 1649 720" fill="none" xmlns="http://www.w3.org/2000/svg">
<g opacity="0.08">
<path d="M317.76 705.6V578.4H0V497.28L228 14.4H324.96L96.96 497.28H317.76V302.88H404.16V497.28H476.16V578.4H404.16V705.6H317.76Z" fill="white"/>
<path d="M824.355 720C779.555 720 739.555 709.92 704.355 689.76C669.475 669.28 641.795 641.6 621.315 606.72C601.155 571.52 591.075 531.52 591.075 486.72V233.28C591.075 188.48 601.155 148.48 621.315 113.28C641.795 78.08 669.475 50.4 704.355 30.24C739.555 10.08 779.555 0 824.355 0C869.155 0 909.155 10.08 944.355 30.24C979.555 50.4 1007.24 78.08 1027.4 113.28C1047.56 148.48 1057.64 188.48 1057.64 233.28V486.72C1057.64 531.52 1047.56 571.52 1027.4 606.72C1007.24 641.6 979.555 669.28 944.355 689.76C909.155 709.92 869.155 720 824.355 720ZM824.355 637.92C851.555 637.92 876.195 631.36 898.275 618.24C920.355 605.12 937.955 587.52 951.075 565.44C964.195 543.04 970.755 518.4 970.755 491.52V228C970.755 200.8 964.195 176.16 951.075 154.08C937.955 132 920.355 114.4 898.275 101.28C876.195 88.16 851.555 81.6 824.355 81.6C797.475 81.6 772.835 88.16 750.435 101.28C728.355 114.4 710.755 132 697.635 154.08C684.515 176.16 677.955 200.8 677.955 228V491.52C677.955 518.4 684.515 543.04 697.635 565.44C710.755 587.52 728.355 605.12 750.435 618.24C772.835 631.36 797.475 637.92 824.355 637.92Z" fill="white"/>
<path d="M1490.57 705.6V578.4H1172.81V497.28L1400.81 14.4H1497.77L1269.77 497.28H1490.57V302.88H1576.97V497.28H1648.97V578.4H1576.97V705.6H1490.57Z" fill="white"/>
</g>
</svg>
