<svg width="19" height="19" viewBox="0 0 19 19" fill="none" xmlns="http://www.w3.org/2000/svg">
<path fill-rule="evenodd" clip-rule="evenodd" d="M1.36831 1.36805C0.782521 1.95384 0.782521 2.90358 1.36831 3.48937L7.37882 9.49988L1.36828 15.5104C0.782493 16.0962 0.782494 17.0459 1.36828 17.6317C1.95407 18.2175 2.90381 18.2175 3.4896 17.6317L9.50014 11.6212L15.5104 17.6315C16.0962 18.2173 17.046 18.2173 17.6318 17.6315C18.2176 17.0457 18.2176 16.096 17.6318 15.5102L11.6215 9.49988L17.6317 3.4896C18.2175 2.90381 18.2175 1.95406 17.6317 1.36828C17.0459 0.782491 16.0962 0.782491 15.5104 1.36828L9.50013 7.37856L3.48963 1.36805C2.90384 0.782264 1.95409 0.782264 1.36831 1.36805Z" fill="#151515"/>
</svg>
