<svg width="280" height="115" viewBox="0 0 280 115" fill="none" xmlns="http://www.w3.org/2000/svg">
<g clip-path="url(#clip0_126_120)">
<mask id="mask0_126_120" style="mask-type:luminance" maskUnits="userSpaceOnUse" x="0" y="0" width="280" height="115">
<path d="M280 0H0V115H280V0Z" fill="white"/>
</mask>
<g mask="url(#mask0_126_120)">
<path d="M64.9563 26.1187H86.2219C91.0457 26.1187 95.1194 26.8539 98.4431 28.3247C101.796 29.7953 104.34 31.9719 106.076 34.8543C107.841 37.7074 108.723 41.2223 108.723 45.3989C108.723 48.3403 108.12 51.0315 106.914 53.4729C105.738 55.8848 104.032 57.9437 101.796 59.6497C99.5902 61.3262 96.9431 62.5762 93.8547 63.3998L91.4722 64.3263H71.4859L71.3977 57.3995H86.4867C89.5457 57.3995 92.0899 56.87 94.1194 55.8112C96.1489 54.7229 97.6784 53.2669 98.7078 51.4433C99.7373 49.6198 100.252 47.6049 100.252 45.3989C100.252 42.9283 99.7667 40.7664 98.796 38.9134C97.8254 37.0603 96.2959 35.6338 94.2077 34.6338C92.1487 33.6043 89.4868 33.0895 86.2219 33.0895H73.4713V90.3569H64.9563V26.1187ZM102.502 90.3569L86.8838 61.2379L95.7518 61.1938L111.591 89.8275V90.3569H102.502Z" fill="#9E896A"/>
<path d="M35.1379 26.1187V90.3569H26.6228V26.1187H35.1379ZM73.9192 26.1187L47.2268 56.0759L32.2261 71.6502L30.8142 62.5615L42.1089 50.1198L63.6834 26.1187H73.9192ZM65.7129 90.3569L41.9324 59.0319L47.0062 52.2817L75.8604 90.3569H65.7129Z" fill="white"/>
<path d="M139.006 35.2954V54.7615H136.426V35.2954H139.006ZM150.759 35.2954L142.67 44.3734L138.124 49.0929L137.696 46.3388L141.119 42.5685L147.656 35.2954H150.759ZM148.271 54.7615L141.065 45.2692L142.603 43.2237L151.346 54.7615H148.271Z" fill="white"/>
<path d="M161.775 52.2882V44.8416C161.775 44.2711 161.659 43.7763 161.427 43.3573C161.205 42.9296 160.866 42.5997 160.411 42.3681C159.956 42.1363 159.395 42.0204 158.726 42.0204C158.102 42.0204 157.555 42.1273 157.082 42.3413C156.619 42.5552 156.254 42.8359 155.986 43.1836C155.727 43.5312 155.599 43.9056 155.599 44.3066H153.125C153.125 43.7897 153.259 43.2772 153.526 42.7691C153.794 42.2611 154.176 41.8021 154.676 41.3921C155.184 40.9731 155.79 40.6433 156.494 40.4027C157.207 40.1531 158 40.0283 158.874 40.0283C159.925 40.0283 160.852 40.2066 161.655 40.5631C162.466 40.9197 163.099 41.4588 163.552 42.1808C164.016 42.8938 164.249 43.7897 164.249 44.8681V51.6064C164.249 52.0877 164.289 52.6002 164.369 53.1439C164.457 53.6876 164.587 54.1557 164.756 54.5478V54.7617H162.176C162.051 54.4766 161.954 54.0976 161.882 53.6252C161.81 53.1439 161.775 52.6982 161.775 52.2882ZM162.202 45.9913L162.23 47.7293H159.73C159.025 47.7293 158.397 47.7873 157.844 47.9032C157.291 48.0101 156.829 48.1748 156.454 48.3977C156.08 48.6206 155.794 48.9014 155.599 49.2401C155.402 49.5699 155.304 49.9574 155.304 50.4032C155.304 50.8577 155.406 51.2723 155.611 51.6467C155.816 52.0209 156.124 52.3194 156.534 52.5423C156.952 52.7562 157.465 52.8632 158.071 52.8632C158.829 52.8632 159.497 52.7028 160.077 52.3819C160.656 52.0611 161.115 51.6689 161.454 51.2054C161.801 50.7419 161.989 50.2918 162.015 49.8551L163.071 51.0449C163.01 51.4193 162.84 51.8337 162.564 52.2882C162.287 52.7428 161.917 53.1797 161.454 53.5986C161 54.0086 160.456 54.3516 159.822 54.6279C159.199 54.8953 158.495 55.0291 157.71 55.0291C156.73 55.0291 155.87 54.8374 155.13 54.4541C154.399 54.0708 153.829 53.5583 153.419 52.9166C153.017 52.2659 152.817 51.5396 152.817 50.7373C152.817 49.9619 152.969 49.2802 153.271 48.6919C153.575 48.0948 154.011 47.5999 154.582 47.2078C155.152 46.8067 155.839 46.5037 156.641 46.2987C157.444 46.0937 158.339 45.9913 159.329 45.9913H162.202Z" fill="white"/>
<path d="M174.195 40.2959V42.1943H166.374V40.2959H174.195ZM169.021 36.7798H171.495V51.1787C171.495 51.6689 171.57 52.0388 171.723 52.2883C171.874 52.5379 172.07 52.7029 172.31 52.7832C172.551 52.8634 172.809 52.9033 173.085 52.9033C173.29 52.9033 173.505 52.8857 173.728 52.85C173.959 52.8054 174.133 52.7697 174.249 52.7429L174.263 54.7618C174.066 54.8243 173.808 54.8822 173.486 54.9357C173.175 54.998 172.796 55.0292 172.35 55.0292C171.744 55.0292 171.188 54.9088 170.679 54.6682C170.171 54.4275 169.765 54.0264 169.463 53.4649C169.169 52.8944 169.021 52.1279 169.021 51.1653V36.7798Z" fill="white"/>
<path d="M181.161 53.2644L185.185 40.2959H187.832L182.03 56.9945C181.896 57.351 181.717 57.7344 181.495 58.1444C181.281 58.5633 181.005 58.9599 180.666 59.3343C180.327 59.7086 179.917 60.0116 179.436 60.2434C178.964 60.484 178.397 60.6044 177.739 60.6044C177.542 60.6044 177.292 60.5776 176.99 60.5241C176.686 60.4706 176.472 60.4261 176.347 60.3904L176.335 58.385C176.406 58.3939 176.517 58.4028 176.669 58.4118C176.829 58.4295 176.94 58.4385 177.002 58.4385C177.565 58.4385 178.041 58.3628 178.434 58.2111C178.826 58.0685 179.155 57.8235 179.422 57.4759C179.699 57.1371 179.935 56.6693 180.131 56.072L181.161 53.2644ZM178.206 40.2959L181.962 51.5264L182.605 54.1335L180.826 55.0426L175.505 40.2959H178.206Z" fill="white"/>
<path d="M198.381 52.2882V44.8416C198.381 44.2711 198.265 43.7763 198.034 43.3573C197.81 42.9296 197.471 42.5997 197.017 42.3681C196.562 42.1363 196.001 42.0204 195.332 42.0204C194.709 42.0204 194.16 42.1273 193.689 42.3413C193.225 42.5552 192.859 42.8359 192.592 43.1836C192.334 43.5312 192.204 43.9056 192.204 44.3066H189.731C189.731 43.7897 189.865 43.2772 190.131 42.7691C190.399 42.2611 190.782 41.8021 191.281 41.3921C191.79 40.9731 192.396 40.6433 193.1 40.4027C193.812 40.1531 194.606 40.0283 195.48 40.0283C196.531 40.0283 197.459 40.2066 198.26 40.5631C199.071 40.9197 199.705 41.4588 200.159 42.1808C200.622 42.8938 200.854 43.7897 200.854 44.8681V51.6064C200.854 52.0877 200.895 52.6002 200.975 53.1439C201.064 53.6876 201.192 54.1557 201.362 54.5478V54.7617H198.782C198.657 54.4766 198.559 54.0976 198.487 53.6252C198.416 53.1439 198.381 52.6982 198.381 52.2882ZM198.809 45.9913L198.835 47.7293H196.335C195.631 47.7293 195.002 47.7873 194.45 47.9032C193.897 48.0101 193.434 48.1748 193.06 48.3977C192.685 48.6206 192.4 48.9014 192.204 49.2401C192.007 49.5699 191.91 49.9574 191.91 50.4032C191.91 50.8577 192.012 51.2723 192.217 51.6467C192.422 52.0209 192.73 52.3194 193.14 52.5423C193.559 52.7562 194.071 52.8632 194.677 52.8632C195.435 52.8632 196.104 52.7028 196.682 52.3819C197.262 52.0611 197.721 51.6689 198.06 51.2054C198.407 50.7419 198.595 50.2918 198.621 49.8551L199.677 51.0449C199.615 51.4193 199.446 51.8337 199.17 52.2882C198.894 52.7428 198.524 53.1797 198.06 53.5986C197.605 54.0086 197.061 54.3516 196.429 54.6279C195.805 54.8953 195.101 55.0291 194.316 55.0291C193.336 55.0291 192.476 54.8374 191.736 54.4541C191.005 54.0708 190.435 53.5583 190.025 52.9166C189.624 52.2659 189.424 51.5396 189.424 50.7373C189.424 49.9619 189.575 49.2802 189.877 48.6919C190.181 48.0948 190.617 47.5999 191.187 47.2078C191.759 46.8067 192.445 46.5037 193.247 46.2987C194.049 46.0937 194.945 45.9913 195.934 45.9913H198.809Z" fill="white"/>
<path d="M136.426 65.4146H142.87C144.333 65.4146 145.566 65.6373 146.574 66.0829C147.59 66.5287 148.361 67.1882 148.886 68.0617C149.421 68.9263 149.689 69.9913 149.689 71.2571C149.689 72.1483 149.506 72.9638 149.141 73.7037C148.784 74.4345 148.268 75.0584 147.59 75.5754C146.921 76.0834 146.119 76.4623 145.184 76.7118L144.461 76.9925H138.405L138.379 74.8935H142.95C143.878 74.8935 144.649 74.733 145.264 74.4122C145.879 74.0824 146.343 73.6413 146.654 73.0887C146.966 72.536 147.121 71.9254 147.121 71.2571C147.121 70.5083 146.975 69.8532 146.681 69.2917C146.386 68.7302 145.923 68.2979 145.29 67.9948C144.666 67.6829 143.86 67.5269 142.87 67.5269H139.006V84.8807H136.426V65.4146ZM147.804 84.8807L143.071 76.0567L145.759 76.0433L150.558 84.7202V84.8807H147.804Z" fill="white"/>
<path d="M163.645 82.4075V74.9606C163.645 74.3901 163.529 73.8955 163.298 73.4765C163.074 73.0487 162.735 72.719 162.281 72.4872C161.826 72.2555 161.265 72.1396 160.596 72.1396C159.973 72.1396 159.424 72.2465 158.951 72.4605C158.489 72.6743 158.122 72.9551 157.855 73.3027C157.597 73.6503 157.467 74.0247 157.467 74.4257H154.995C154.995 73.9088 155.128 73.3963 155.395 72.8882C155.663 72.3802 156.046 71.9212 156.545 71.5112C157.054 71.0923 157.66 70.7625 158.364 70.5218C159.076 70.2722 159.87 70.1475 160.744 70.1475C161.795 70.1475 162.723 70.3257 163.524 70.6823C164.335 71.0388 164.969 71.5781 165.422 72.3C165.886 73.0131 166.117 73.9088 166.117 74.9873V81.7256C166.117 82.2068 166.157 82.7193 166.239 83.2631C166.327 83.8067 166.456 84.2747 166.626 84.6668V84.8808H164.046C163.921 84.5956 163.823 84.2167 163.751 83.7443C163.68 83.2631 163.645 82.8175 163.645 82.4075ZM164.072 76.1103L164.099 77.8483H161.599C160.895 77.8483 160.266 77.9063 159.714 78.0222C159.161 78.1291 158.697 78.2941 158.324 78.5168C157.949 78.7397 157.664 79.0205 157.467 79.3591C157.271 79.689 157.174 80.0767 157.174 80.5223C157.174 80.9768 157.276 81.3913 157.481 81.7657C157.686 82.1401 157.994 82.4386 158.404 82.6615C158.822 82.8753 159.335 82.9823 159.941 82.9823C160.699 82.9823 161.368 82.8218 161.946 82.501C162.526 82.1801 162.985 81.788 163.324 81.3245C163.671 80.861 163.859 80.4108 163.885 79.9742L164.941 81.1641C164.879 81.5383 164.71 81.9528 164.434 82.4075C164.157 82.862 163.787 83.2987 163.324 83.7176C162.869 84.1276 162.325 84.4708 161.693 84.7471C161.069 85.0145 160.365 85.1482 159.58 85.1482C158.6 85.1482 157.74 84.9566 157 84.5733C156.269 84.1901 155.699 83.6776 155.289 83.0358C154.888 82.3851 154.688 81.6587 154.688 80.8566C154.688 80.0811 154.839 79.3992 155.141 78.811C155.445 78.2138 155.881 77.7191 156.451 77.327C157.023 76.9258 157.709 76.6228 158.51 76.4178C159.312 76.2128 160.209 76.1103 161.197 76.1103H164.072Z" fill="white"/>
<path d="M181.317 82.0733V64.3452H183.804V84.881H181.531L181.317 82.0733ZM171.584 77.8085V77.5276C171.584 76.4225 171.717 75.4197 171.985 74.5195C172.261 73.6103 172.649 72.8305 173.149 72.1798C173.656 71.5291 174.257 71.03 174.952 70.6825C175.657 70.3258 176.441 70.1476 177.306 70.1476C178.215 70.1476 179.009 70.3081 179.686 70.629C180.372 70.9408 180.951 71.4 181.424 72.006C181.905 72.6032 182.284 73.3251 182.56 74.1718C182.836 75.0186 183.029 75.9767 183.135 77.0463V78.2763C183.037 79.337 182.845 80.2907 182.56 81.1375C182.284 81.9842 181.905 82.7061 181.424 83.3033C180.951 83.9005 180.372 84.3595 179.686 84.6803C179 84.9923 178.197 85.1483 177.28 85.1483C176.432 85.1483 175.657 84.9656 174.952 84.6002C174.257 84.2347 173.656 83.7222 173.149 83.0627C172.649 82.4031 172.261 81.6277 171.985 80.7363C171.717 79.8361 171.584 78.8601 171.584 77.8085ZM174.071 77.5276V77.8085C174.071 78.5303 174.142 79.2077 174.285 79.8406C174.436 80.4735 174.667 81.0305 174.98 81.5118C175.291 81.9931 175.689 82.3718 176.17 82.6482C176.651 82.9156 177.226 83.0493 177.895 83.0493C178.715 83.0493 179.387 82.8755 179.914 82.5278C180.447 82.1802 180.876 81.7212 181.196 81.1508C181.517 80.5803 181.767 79.961 181.945 79.2925V76.0703C181.839 75.5801 181.683 75.1077 181.478 74.6532C181.281 74.1897 181.022 73.7797 180.702 73.4232C180.39 73.0577 180.002 72.7681 179.539 72.5541C179.084 72.3402 178.545 72.2333 177.921 72.2333C177.244 72.2333 176.66 72.3758 176.17 72.6611C175.689 72.9375 175.291 73.3207 174.98 73.8108C174.667 74.2922 174.436 74.8537 174.285 75.4955C174.142 76.1283 174.071 76.8057 174.071 77.5276Z" fill="white"/>
<path d="M189.19 77.8083V77.5007C189.19 76.458 189.341 75.4908 189.644 74.5996C189.947 73.6993 190.384 72.9195 190.954 72.2598C191.525 71.5915 192.215 71.0745 193.026 70.709C193.837 70.3347 194.747 70.1475 195.754 70.1475C196.77 70.1475 197.684 70.3347 198.495 70.709C199.315 71.0745 200.01 71.5915 200.58 72.2598C201.16 72.9195 201.601 73.6993 201.904 74.5996C202.207 75.4908 202.359 76.458 202.359 77.5007V77.8083C202.359 78.8511 202.207 79.8182 201.904 80.7095C201.601 81.6008 201.16 82.3807 200.58 83.0492C200.01 83.7087 199.319 84.2257 198.509 84.6001C197.706 84.9655 196.797 85.1482 195.781 85.1482C194.765 85.1482 193.851 84.9655 193.04 84.6001C192.229 84.2257 191.534 83.7087 190.954 83.0492C190.384 82.3807 189.947 81.6008 189.644 80.7095C189.341 79.8182 189.19 78.8511 189.19 77.8083ZM191.662 77.5007V77.8083C191.662 78.5302 191.747 79.2121 191.917 79.8538C192.086 80.4867 192.34 81.0482 192.679 81.5383C193.026 82.0286 193.459 82.4163 193.976 82.7016C194.492 82.9778 195.095 83.116 195.781 83.116C196.459 83.116 197.051 82.9778 197.559 82.7016C198.076 82.4163 198.504 82.0286 198.842 81.5383C199.181 81.0482 199.435 80.4867 199.605 79.8538C199.782 79.2121 199.872 78.5302 199.872 77.8083V77.5007C199.872 76.7877 199.782 76.1148 199.605 75.482C199.435 74.8402 199.176 74.2742 198.829 73.784C198.49 73.2848 198.062 72.8927 197.545 72.6075C197.037 72.3223 196.44 72.1797 195.754 72.1797C195.076 72.1797 194.48 72.3223 193.962 72.6075C193.455 72.8927 193.026 73.2848 192.679 73.784C192.34 74.2742 192.086 74.8402 191.917 75.482C191.747 76.1148 191.662 76.7877 191.662 77.5007Z" fill="white"/>
<path fill-rule="evenodd" clip-rule="evenodd" d="M160.59 68.6094L164.34 61.1094H166.84L161.875 68.6094H160.59Z" fill="white"/>
<path d="M245.57 57.7545L279.123 114.5H21.182C9.75967 114.5 0.5 105.24 0.5 93.818V21.182C0.5 9.75967 9.75966 0.5 21.182 0.5H279.123L245.57 57.2455L245.419 57.5L245.57 57.7545Z" stroke="white"/>
</g>
</g>
<defs>
<clipPath id="clip0_126_120">
<rect width="280" height="115" fill="white"/>
</clipPath>
</defs>
</svg>
