<svg width="280" height="115" viewBox="0 0 280 115" fill="none" xmlns="http://www.w3.org/2000/svg">
<g clip-path="url(#clip0_104_7)">
<mask id="mask0_104_7" style="mask-type:luminance" maskUnits="userSpaceOnUse" x="0" y="0" width="280" height="115">
<path d="M280 0H0V115H280V0Z" fill="white"/>
</mask>
<g mask="url(#mask0_104_7)">
<path d="M64.9565 26.1189H86.2222C91.0459 26.1189 95.1197 26.8541 98.4433 28.3249C101.796 29.7955 104.341 31.9721 106.076 34.8545C107.841 37.7076 108.723 41.2225 108.723 45.3991C108.723 48.3405 108.12 51.0317 106.914 53.4731C105.738 55.885 104.032 57.9439 101.796 59.6499C99.5904 61.3264 96.9433 62.5764 93.8549 63.4L91.4724 64.3265H71.4862L71.3979 57.3997H86.4869C89.5459 57.3997 92.0902 56.8702 94.1197 55.8114C96.1492 54.7231 97.6787 53.2671 98.708 51.4435C99.7375 49.62 100.252 47.6051 100.252 45.3991C100.252 42.9285 99.7669 40.7666 98.7963 38.9136C97.8257 37.0605 96.2962 35.634 94.2079 34.634C92.1489 33.6045 89.487 33.0897 86.2222 33.0897H73.4715V90.3571H64.9565V26.1189ZM102.502 90.3571L86.884 61.2381L95.752 61.194L111.591 89.8277V90.3571H102.502Z" fill="#9E896A"/>
<path d="M35.1382 26.1189V90.3571H26.623V26.1189H35.1382ZM73.9194 26.1189L47.227 56.0761L32.2263 71.6504L30.8144 62.5617L42.1092 50.12L63.6837 26.1189H73.9194ZM65.7132 90.3571L41.9327 59.0321L47.0064 52.2819L75.8607 90.3571H65.7132Z" fill="#33332C"/>
<path d="M139.006 35.2957V54.7619H136.426V35.2957H139.006ZM150.759 35.2957L142.67 44.3737L138.124 49.0932L137.696 46.3391L141.119 42.5689L147.656 35.2957H150.759ZM148.271 54.7619L141.065 45.2695L142.603 43.224L151.346 54.7619H148.271Z" fill="#33332C"/>
<path d="M161.775 52.2885V44.8419C161.775 44.2714 161.659 43.7766 161.428 43.3576C161.205 42.9299 160.867 42.6 160.412 42.3684C159.957 42.1366 159.395 42.0208 158.727 42.0208C158.103 42.0208 157.555 42.1276 157.083 42.3416C156.619 42.5555 156.254 42.8363 155.987 43.1839C155.728 43.5315 155.599 43.9059 155.599 44.3069H153.125C153.125 43.79 153.259 43.2775 153.527 42.7694C153.794 42.2614 154.177 41.8024 154.677 41.3924C155.184 40.9734 155.79 40.6436 156.494 40.403C157.208 40.1534 158 40.0286 158.874 40.0286C159.925 40.0286 160.853 40.2069 161.655 40.5634C162.467 40.92 163.099 41.4591 163.553 42.1811C164.017 42.8941 164.249 43.79 164.249 44.8684V51.6068C164.249 52.088 164.289 52.6005 164.369 53.1443C164.458 53.6879 164.588 54.156 164.757 54.5481V54.762H162.177C162.052 54.4769 161.954 54.0979 161.883 53.6255C161.81 53.1442 161.775 52.6985 161.775 52.2885ZM162.203 45.9916L162.23 47.7296H159.73C159.025 47.7296 158.398 47.7876 157.844 47.9035C157.292 48.0104 156.829 48.1751 156.454 48.398C156.08 48.6209 155.794 48.9018 155.599 49.2404C155.403 49.5703 155.304 49.9578 155.304 50.4035C155.304 50.858 155.407 51.2726 155.612 51.647C155.817 52.0213 156.124 52.3198 156.534 52.5426C156.953 52.7565 157.465 52.8635 158.072 52.8635C158.829 52.8635 159.498 52.7031 160.078 52.3823C160.657 52.0614 161.115 51.6693 161.454 51.2058C161.802 50.7423 161.989 50.2921 162.015 49.8554L163.072 51.0453C163.01 51.4196 162.84 51.834 162.564 52.2885C162.288 52.7431 161.918 53.18 161.454 53.5989C161 54.0089 160.457 54.3519 159.823 54.6282C159.199 54.8956 158.495 55.0294 157.71 55.0294C156.73 55.0294 155.87 54.8378 155.13 54.4544C154.399 54.0711 153.829 53.5586 153.419 52.9169C153.018 52.2663 152.818 51.5399 152.818 50.7376C152.818 49.9622 152.969 49.2805 153.272 48.6923C153.575 48.0951 154.012 47.6002 154.583 47.2081C155.153 46.807 155.839 46.504 156.642 46.299C157.444 46.094 158.339 45.9916 159.329 45.9916H162.203Z" fill="#33332C"/>
<path d="M174.195 40.2961V42.1945H166.374V40.2961H174.195ZM169.022 36.78H171.495V51.1789C171.495 51.6691 171.57 52.039 171.723 52.2885C171.874 52.5381 172.07 52.7031 172.31 52.7834C172.552 52.8636 172.809 52.9035 173.085 52.9035C173.29 52.9035 173.505 52.8859 173.728 52.8503C173.959 52.8056 174.133 52.7699 174.249 52.7431L174.263 54.762C174.067 54.8245 173.808 54.8824 173.487 54.9359C173.175 54.9983 172.797 55.0294 172.35 55.0294C171.744 55.0294 171.188 54.909 170.679 54.6684C170.172 54.4277 169.765 54.0266 169.463 53.4651C169.169 52.8946 169.022 52.1281 169.022 51.1655V36.78Z" fill="#33332C"/>
<path d="M181.162 53.2645L185.185 40.296H187.833L182.03 56.9946C181.897 57.3511 181.718 57.7345 181.495 58.1445C181.282 58.5634 181.005 58.96 180.667 59.3344C180.328 59.7087 179.918 60.0117 179.437 60.2435C178.964 60.4841 178.398 60.6045 177.739 60.6045C177.543 60.6045 177.293 60.5777 176.99 60.5242C176.687 60.4707 176.473 60.4262 176.348 60.3905L176.335 58.3851C176.407 58.394 176.518 58.4029 176.669 58.4119C176.829 58.4296 176.94 58.4386 177.003 58.4386C177.565 58.4386 178.042 58.3629 178.434 58.2112C178.827 58.0686 179.155 57.8236 179.423 57.476C179.699 57.1372 179.935 56.6694 180.132 56.0721L181.162 53.2645ZM178.207 40.296L181.963 51.5265L182.605 54.1336L180.827 55.0427L175.505 40.296H178.207Z" fill="#33332C"/>
<path d="M198.381 52.2885V44.8419C198.381 44.2714 198.265 43.7766 198.034 43.3576C197.81 42.9299 197.471 42.6 197.018 42.3684C196.563 42.1366 196.001 42.0208 195.333 42.0208C194.709 42.0208 194.16 42.1276 193.689 42.3416C193.225 42.5555 192.859 42.8363 192.593 43.1839C192.334 43.5315 192.204 43.9059 192.204 44.3069H189.731C189.731 43.79 189.865 43.2775 190.131 42.7694C190.399 42.2614 190.783 41.8024 191.281 41.3924C191.79 40.9734 192.396 40.6436 193.1 40.403C193.813 40.1534 194.606 40.0286 195.48 40.0286C196.531 40.0286 197.459 40.2069 198.26 40.5634C199.071 40.92 199.705 41.4591 200.159 42.1811C200.623 42.8941 200.854 43.79 200.854 44.8684V51.6068C200.854 52.088 200.895 52.6005 200.975 53.1443C201.064 53.6879 201.193 54.156 201.363 54.5481V54.762H198.783C198.658 54.4769 198.559 54.0979 198.488 53.6255C198.416 53.1442 198.381 52.6985 198.381 52.2885ZM198.809 45.9916L198.835 47.7296H196.335C195.631 47.7296 195.003 47.7876 194.45 47.9035C193.898 48.0104 193.434 48.1751 193.06 48.398C192.685 48.6209 192.4 48.9018 192.204 49.2404C192.008 49.5703 191.91 49.9578 191.91 50.4035C191.91 50.858 192.013 51.2726 192.218 51.647C192.423 52.0213 192.73 52.3198 193.14 52.5426C193.559 52.7565 194.071 52.8635 194.678 52.8635C195.435 52.8635 196.104 52.7031 196.683 52.3823C197.263 52.0614 197.721 51.6693 198.06 51.2058C198.408 50.7423 198.595 50.2921 198.621 49.8554L199.678 51.0453C199.615 51.4196 199.446 51.834 199.17 52.2885C198.894 52.7431 198.524 53.18 198.06 53.5989C197.605 54.0089 197.061 54.3519 196.429 54.6282C195.805 54.8956 195.101 55.0294 194.316 55.0294C193.336 55.0294 192.476 54.8378 191.736 54.4544C191.005 54.0711 190.435 53.5586 190.025 52.9169C189.624 52.2663 189.424 51.5399 189.424 50.7376C189.424 49.9622 189.575 49.2805 189.878 48.6923C190.181 48.0951 190.618 47.6002 191.188 47.2081C191.759 46.807 192.445 46.504 193.248 46.299C194.049 46.094 194.945 45.9916 195.934 45.9916H198.809Z" fill="#33332C"/>
<path d="M136.426 65.4149H142.87C144.333 65.4149 145.566 65.6376 146.574 66.0832C147.59 66.529 148.361 67.1885 148.886 68.062C149.421 68.9266 149.689 69.9916 149.689 71.2574C149.689 72.1486 149.506 72.9641 149.141 73.704C148.784 74.4349 148.268 75.0587 147.59 75.5757C146.921 76.0837 146.119 76.4626 145.184 76.7121L144.461 76.9929H138.405L138.379 74.8939H142.95C143.878 74.8939 144.649 74.7334 145.264 74.4125C145.879 74.0827 146.343 73.6416 146.654 73.089C146.966 72.5364 147.121 71.9257 147.121 71.2574C147.121 70.5086 146.975 69.8535 146.681 69.292C146.386 68.7305 145.923 68.2982 145.29 67.9951C144.666 67.6832 143.86 67.5272 142.87 67.5272H139.006V84.881H136.426V65.4149ZM147.804 84.881L143.071 76.057L145.759 76.0436L150.558 84.7205V84.881H147.804Z" fill="#33332C"/>
<path d="M163.645 82.4075V74.9606C163.645 74.3901 163.529 73.8955 163.298 73.4765C163.074 73.0487 162.735 72.719 162.281 72.4872C161.826 72.2555 161.265 72.1396 160.596 72.1396C159.973 72.1396 159.424 72.2465 158.951 72.4605C158.489 72.6744 158.122 72.9551 157.855 73.3027C157.597 73.6504 157.467 74.0247 157.467 74.4257H154.995C154.995 73.9089 155.128 73.3964 155.395 72.8882C155.663 72.3802 156.046 71.9212 156.545 71.5112C157.054 71.0924 157.66 70.7625 158.364 70.5219C159.076 70.2722 159.87 70.1475 160.744 70.1475C161.795 70.1475 162.723 70.3257 163.524 70.6824C164.335 71.0389 164.969 71.5781 165.422 72.3C165.886 73.0131 166.117 73.9089 166.117 74.9874V81.7256C166.117 82.2069 166.157 82.7194 166.239 83.2631C166.327 83.8067 166.456 84.2747 166.626 84.6669V84.8809H164.046C163.921 84.5956 163.823 84.2167 163.751 83.7444C163.68 83.2631 163.645 82.8175 163.645 82.4075ZM164.072 76.1104L164.099 77.8484H161.599C160.895 77.8484 160.266 77.9064 159.714 78.0222C159.161 78.1291 158.697 78.2941 158.324 78.5169C157.949 78.7397 157.664 79.0205 157.467 79.3591C157.271 79.689 157.174 80.0767 157.174 80.5224C157.174 80.9769 157.276 81.3914 157.481 81.7657C157.686 82.1401 157.994 82.4386 158.404 82.6615C158.822 82.8754 159.335 82.9824 159.941 82.9824C160.699 82.9824 161.368 82.8219 161.946 82.501C162.526 82.1801 162.985 81.788 163.324 81.3245C163.671 80.861 163.859 80.4109 163.885 79.9742L164.941 81.1641C164.879 81.5384 164.71 81.9529 164.434 82.4075C164.157 82.862 163.787 83.2987 163.324 83.7176C162.869 84.1276 162.325 84.4709 161.693 84.7471C161.069 85.0145 160.365 85.1482 159.58 85.1482C158.6 85.1482 157.74 84.9566 157 84.5734C156.269 84.1901 155.699 83.6776 155.289 83.0359C154.888 82.3851 154.688 81.6587 154.688 80.8566C154.688 80.0811 154.839 79.3992 155.141 78.811C155.445 78.2139 155.881 77.7191 156.451 77.327C157.023 76.9259 157.709 76.6229 158.51 76.4179C159.312 76.2129 160.209 76.1104 161.197 76.1104H164.072Z" fill="#33332C"/>
<path d="M181.318 82.0734V64.3452H183.804V84.881H181.531L181.318 82.0734ZM171.584 77.8085V77.5276C171.584 76.4225 171.718 75.4197 171.985 74.5195C172.261 73.6104 172.649 72.8305 173.149 72.1799C173.656 71.5291 174.258 71.03 174.953 70.6825C175.658 70.3259 176.441 70.1476 177.306 70.1476C178.215 70.1476 179.009 70.3081 179.686 70.629C180.373 70.9409 180.951 71.4 181.424 72.006C181.905 72.6032 182.284 73.3251 182.56 74.1719C182.836 75.0186 183.029 75.9767 183.135 77.0464V78.2764C183.038 79.337 182.845 80.2907 182.56 81.1375C182.284 81.9842 181.905 82.7061 181.424 83.3034C180.951 83.9005 180.373 84.3595 179.686 84.6804C179 84.9924 178.198 85.1484 177.28 85.1484C176.433 85.1484 175.658 84.9656 174.953 84.6002C174.258 84.2347 173.656 83.7222 173.149 83.0627C172.649 82.4031 172.261 81.6278 171.985 80.7364C171.718 79.8361 171.584 78.8601 171.584 77.8085ZM174.071 77.5276V77.8085C174.071 78.5304 174.143 79.2077 174.285 79.8406C174.436 80.4735 174.668 81.0305 174.98 81.5119C175.291 81.9931 175.689 82.3719 176.17 82.6482C176.651 82.9156 177.226 83.0494 177.895 83.0494C178.715 83.0494 179.388 82.8755 179.914 82.5279C180.448 82.1802 180.876 81.7212 181.196 81.1509C181.518 80.5804 181.768 79.961 181.945 79.2925V76.0704C181.839 75.5801 181.683 75.1077 181.478 74.6532C181.281 74.1897 181.023 73.7797 180.703 73.4232C180.39 73.0577 180.003 72.7681 179.539 72.5541C179.084 72.3402 178.545 72.2334 177.921 72.2334C177.244 72.2334 176.66 72.3759 176.17 72.6611C175.689 72.9375 175.291 73.3207 174.98 73.8109C174.668 74.2922 174.436 74.8537 174.285 75.4955C174.143 76.1284 174.071 76.8057 174.071 77.5276Z" fill="#33332C"/>
<path d="M189.19 77.8084V77.5007C189.19 76.458 189.341 75.4909 189.644 74.5996C189.947 73.6994 190.384 72.9195 190.954 72.2599C191.525 71.5915 192.215 71.0745 193.026 70.709C193.837 70.3347 194.747 70.1475 195.754 70.1475C196.77 70.1475 197.684 70.3347 198.495 70.709C199.315 71.0745 200.01 71.5915 200.58 72.2599C201.16 72.9195 201.601 73.6994 201.904 74.5996C202.207 75.4909 202.359 76.458 202.359 77.5007V77.8084C202.359 78.8511 202.207 79.8182 201.904 80.7095C201.601 81.6009 201.16 82.3807 200.58 83.0492C200.01 83.7087 199.319 84.2257 198.509 84.6001C197.706 84.9655 196.797 85.1482 195.781 85.1482C194.765 85.1482 193.851 84.9655 193.04 84.6001C192.229 84.2257 191.534 83.7087 190.954 83.0492C190.384 82.3807 189.947 81.6009 189.644 80.7095C189.341 79.8182 189.19 78.8511 189.19 77.8084ZM191.662 77.5007V77.8084C191.662 78.5302 191.747 79.2121 191.917 79.8539C192.086 80.4867 192.34 81.0482 192.679 81.5384C193.026 82.0286 193.459 82.4164 193.976 82.7016C194.492 82.9779 195.095 83.116 195.781 83.116C196.459 83.116 197.051 82.9779 197.559 82.7016C198.076 82.4164 198.504 82.0286 198.842 81.5384C199.181 81.0482 199.435 80.4867 199.605 79.8539C199.782 79.2121 199.872 78.5302 199.872 77.8084V77.5007C199.872 76.7877 199.782 76.1149 199.605 75.482C199.435 74.8402 199.176 74.2742 198.829 73.784C198.49 73.2849 198.062 72.8927 197.545 72.6075C197.037 72.3224 196.44 72.1797 195.754 72.1797C195.076 72.1797 194.48 72.3224 193.962 72.6075C193.455 72.8927 193.026 73.2849 192.679 73.784C192.34 74.2742 192.086 74.8402 191.917 75.482C191.747 76.1149 191.662 76.7877 191.662 77.5007Z" fill="#33332C"/>
<path fill-rule="evenodd" clip-rule="evenodd" d="M160.59 68.6095L164.34 61.1095H166.84L161.875 68.6095H160.59Z" fill="#33332C"/>
<path d="M245.57 57.7545L279.123 114.5H21.182C9.75967 114.5 0.5 105.24 0.5 93.818V21.182C0.5 9.75967 9.75966 0.5 21.182 0.5H279.123L245.57 57.2455L245.419 57.5L245.57 57.7545Z" stroke="#33332C"/>
</g>
</g>
<defs>
<clipPath id="clip0_104_7">
<rect width="280" height="115" fill="white"/>
</clipPath>
</defs>
</svg>
