<svg width="224" height="92" viewBox="0 0 224 92" fill="none" xmlns="http://www.w3.org/2000/svg">
<path d="M0 0H223.429L197.143 46L223.429 92H0V0Z" fill="#F2C83F"/>
<path d="M51.965 20.8951H68.9775C72.8365 20.8951 76.0955 21.4833 78.7544 22.6599C81.4369 23.8364 83.4723 25.5777 84.8606 27.8836C86.2724 30.1661 86.9784 32.978 86.9784 36.3193C86.9784 38.6724 86.496 40.8254 85.5312 42.7785C84.59 44.708 83.2252 46.3551 81.4369 47.7199C79.6721 49.0611 77.5544 50.0611 75.0837 50.72L73.1777 51.4612H57.1887L57.1181 45.9198H69.1893C71.6365 45.9198 73.6719 45.4962 75.2955 44.6491C76.9191 43.7785 78.1427 42.6137 78.9662 41.1548C79.7898 39.696 80.2016 38.0841 80.2016 36.3193C80.2016 34.3428 79.8133 32.6133 79.0368 31.1309C78.2603 29.6484 77.0367 28.5072 75.3661 27.7072C73.7189 26.8836 71.5894 26.4718 68.9775 26.4718H58.777V72.2857H51.965V20.8951ZM82.0017 72.2857L69.507 48.9905L76.6014 48.9552L89.2726 71.8622V72.2857H82.0017Z" fill="#828274"/>
<path d="M28.1104 20.8951V72.2857H21.2983V20.8951H28.1104ZM59.1354 20.8951L37.7815 44.8609L25.7809 57.3203L24.6514 50.0494L33.6872 40.096L50.9468 20.8951H59.1354ZM52.5704 72.2857L33.546 47.2257L37.605 41.8255L60.6884 72.2857H52.5704Z" fill="#33332C"/>
<path d="M111.205 28.2366V43.8095H109.141V28.2366H111.205ZM120.607 28.2366L114.136 35.499L110.499 39.2746L110.157 37.0713L112.895 34.0551L118.125 28.2366H120.607ZM118.617 43.8095L112.852 36.2156L114.082 34.5792L121.077 43.8095H118.617Z" fill="#33332C"/>
<path d="M129.42 41.8308V35.8734C129.42 35.417 129.327 35.0213 129.142 34.6861C128.964 34.3439 128.693 34.08 128.329 33.8947C127.965 33.7093 127.516 33.6166 126.981 33.6166C126.482 33.6166 126.044 33.7021 125.666 33.8733C125.295 34.0444 125.003 34.269 124.789 34.5471C124.582 34.8252 124.479 35.1247 124.479 35.4455H122.5C122.5 35.032 122.607 34.622 122.821 34.2155C123.035 33.8091 123.341 33.4419 123.741 33.1139C124.147 32.7787 124.632 32.5149 125.195 32.3224C125.766 32.1227 126.4 32.0229 127.099 32.0229C127.94 32.0229 128.682 32.1655 129.324 32.4507C129.973 32.736 130.479 33.1673 130.842 33.7449C131.213 34.3153 131.399 35.032 131.399 35.8947V41.2854C131.399 41.6704 131.431 42.0804 131.495 42.5154C131.566 42.9503 131.67 43.3247 131.805 43.6384V43.8095H129.741C129.641 43.5814 129.563 43.2783 129.506 42.9004C129.448 42.5154 129.42 42.1588 129.42 41.8308ZM129.762 36.7932L129.784 38.1836H127.784C127.22 38.1836 126.718 38.23 126.275 38.3227C125.833 38.4082 125.463 38.5401 125.163 38.7184C124.864 38.8967 124.635 39.1213 124.479 39.3922C124.322 39.6561 124.243 39.9662 124.243 40.3228C124.243 40.6864 124.325 41.018 124.489 41.3175C124.653 41.6169 124.899 41.8558 125.227 42.0341C125.562 42.2052 125.972 42.2908 126.457 42.2908C127.063 42.2908 127.598 42.1624 128.062 41.9057C128.525 41.649 128.892 41.3353 129.163 40.9645C129.441 40.5937 129.591 40.2336 129.612 39.8842L130.457 40.8361C130.408 41.1356 130.272 41.4672 130.051 41.8308C129.83 42.1945 129.534 42.5439 129.163 42.879C128.8 43.207 128.365 43.4815 127.858 43.7026C127.359 43.9165 126.796 44.0235 126.168 44.0235C125.384 44.0235 124.696 43.8702 124.104 43.5635C123.519 43.2569 123.063 42.8469 122.735 42.3335C122.414 41.813 122.254 41.2319 122.254 40.5901C122.254 39.9698 122.375 39.4243 122.617 38.9537C122.86 38.476 123.209 38.0802 123.666 37.7665C124.122 37.4456 124.671 37.2032 125.313 37.0392C125.955 36.8752 126.671 36.7932 127.463 36.7932H129.762Z" fill="#33332C"/>
<path d="M139.356 32.2368V33.7556H133.099V32.2368H139.356ZM135.217 29.4239H137.196V40.9431C137.196 41.3353 137.256 41.6312 137.378 41.8308C137.499 42.0305 137.656 42.1624 137.848 42.2266C138.041 42.2908 138.247 42.3228 138.468 42.3228C138.632 42.3228 138.804 42.3086 138.982 42.2801C139.167 42.2444 139.306 42.2159 139.399 42.1945L139.41 43.8095C139.253 43.8595 139.046 43.9058 138.789 43.9486C138.54 43.9985 138.237 44.0235 137.88 44.0235C137.395 44.0235 136.95 43.9272 136.543 43.7347C136.137 43.5422 135.812 43.2213 135.57 42.7721C135.335 42.3157 135.217 41.7025 135.217 40.9324V29.4239Z" fill="#33332C"/>
<path d="M144.929 42.6116L148.148 32.2368H150.266L145.624 45.5957C145.517 45.8809 145.374 46.1876 145.196 46.5156C145.025 46.8507 144.804 47.168 144.533 47.4675C144.262 47.767 143.934 48.0094 143.549 48.1948C143.171 48.3873 142.718 48.4836 142.191 48.4836C142.034 48.4836 141.834 48.4622 141.592 48.4194C141.349 48.3766 141.178 48.341 141.078 48.3124L141.068 46.7081C141.125 46.7152 141.214 46.7223 141.335 46.7295C141.463 46.7437 141.552 46.7509 141.602 46.7509C142.052 46.7509 142.433 46.6903 142.747 46.569C143.061 46.4549 143.324 46.2589 143.538 45.9808C143.759 45.7098 143.948 45.3355 144.105 44.8577L144.929 42.6116ZM142.565 32.2368L145.57 41.2212L146.084 43.3069L144.661 44.0342L140.404 32.2368H142.565Z" fill="#33332C"/>
<path d="M158.705 41.8308V35.8734C158.705 35.417 158.612 35.0213 158.427 34.6861C158.248 34.3439 157.977 34.08 157.614 33.8947C157.25 33.7093 156.801 33.6166 156.266 33.6166C155.767 33.6166 155.328 33.7021 154.951 33.8733C154.58 34.0444 154.287 34.269 154.074 34.5471C153.867 34.8252 153.763 35.1247 153.763 35.4455H151.785C151.785 35.032 151.892 34.622 152.105 34.2155C152.319 33.8091 152.626 33.4419 153.025 33.1139C153.432 32.7787 153.917 32.5149 154.48 32.3224C155.05 32.1227 155.685 32.0229 156.384 32.0229C157.225 32.0229 157.967 32.1655 158.608 32.4507C159.257 32.736 159.764 33.1673 160.127 33.7449C160.498 34.3153 160.683 35.032 160.683 35.8947V41.2854C160.683 41.6704 160.716 42.0804 160.78 42.5154C160.851 42.9503 160.954 43.3247 161.09 43.6384V43.8095H159.026C158.926 43.5814 158.847 43.2783 158.79 42.9004C158.733 42.5154 158.705 42.1588 158.705 41.8308ZM159.047 36.7932L159.068 38.1836H157.068C156.505 38.1836 156.002 38.23 155.56 38.3227C155.118 38.4082 154.747 38.5401 154.448 38.7184C154.148 38.8967 153.92 39.1213 153.763 39.3922C153.606 39.6561 153.528 39.9662 153.528 40.3228C153.528 40.6864 153.61 41.018 153.774 41.3175C153.938 41.6169 154.184 41.8558 154.512 42.0341C154.847 42.2052 155.257 42.2908 155.742 42.2908C156.348 42.2908 156.883 42.1624 157.346 41.9057C157.81 41.649 158.177 41.3353 158.448 40.9645C158.726 40.5937 158.876 40.2336 158.897 39.8842L159.742 40.8361C159.692 41.1356 159.557 41.4672 159.336 41.8308C159.115 42.1945 158.819 42.5439 158.448 42.879C158.084 43.207 157.649 43.4815 157.143 43.7026C156.644 43.9165 156.081 44.0235 155.453 44.0235C154.669 44.0235 153.981 43.8702 153.389 43.5635C152.804 43.2569 152.348 42.8469 152.02 42.3335C151.699 41.813 151.539 41.2319 151.539 40.5901C151.539 39.9698 151.66 39.4243 151.902 38.9537C152.145 38.476 152.494 38.0802 152.95 37.7665C153.407 37.4456 153.956 37.2032 154.598 37.0392C155.239 36.8752 155.956 36.7932 156.747 36.7932H159.047Z" fill="#33332C"/>
<path d="M109.141 52.3319H114.296C115.466 52.3319 116.453 52.5101 117.259 52.8666C118.072 53.2232 118.689 53.7508 119.109 54.4496C119.537 55.1413 119.751 55.9933 119.751 57.0059C119.751 57.7189 119.605 58.3713 119.313 58.9632C119.027 59.5479 118.614 60.047 118.072 60.4606C117.537 60.867 116.895 61.1701 116.147 61.3697L115.569 61.5943H110.724L110.703 59.9151H114.36C115.102 59.9151 115.719 59.7867 116.211 59.53C116.703 59.2662 117.074 58.9133 117.323 58.4712C117.573 58.0291 117.697 57.5406 117.697 57.0059C117.697 56.4069 117.58 55.8828 117.345 55.4336C117.109 54.9844 116.738 54.6386 116.232 54.3961C115.733 54.1466 115.088 54.0218 114.296 54.0218H111.205V67.9048H109.141V52.3319ZM118.243 67.9048L114.457 60.8456L116.607 60.8349L120.446 67.7764V67.9048H118.243Z" fill="#33332C"/>
<path d="M130.916 65.9261V59.9686C130.916 59.5122 130.823 59.1165 130.638 58.7813C130.459 58.4391 130.188 58.1753 129.825 57.9899C129.461 57.8045 129.012 57.7118 128.477 57.7118C127.978 57.7118 127.539 57.7973 127.161 57.9685C126.791 58.1396 126.498 58.3642 126.284 58.6423C126.078 58.9204 125.974 59.2199 125.974 59.5407H123.996C123.996 59.1272 124.102 58.7172 124.316 58.3107C124.53 57.9043 124.837 57.5371 125.236 57.2091C125.643 56.874 126.128 56.6101 126.691 56.4176C127.261 56.2179 127.896 56.1181 128.595 56.1181C129.436 56.1181 130.178 56.2607 130.819 56.546C131.468 56.8312 131.975 57.2626 132.338 57.8401C132.709 58.4106 132.894 59.1272 132.894 59.99V65.3806C132.894 65.7656 132.926 66.1756 132.991 66.6106C133.062 67.0455 133.165 67.4199 133.301 67.7336V67.9048H131.237C131.137 67.6766 131.058 67.3735 131.001 66.9956C130.944 66.6106 130.916 66.2541 130.916 65.9261ZM131.258 60.8884L131.279 62.2788H129.279C128.716 62.2788 128.213 62.3252 127.771 62.4179C127.329 62.5034 126.958 62.6354 126.659 62.8136C126.359 62.9919 126.131 63.2165 125.974 63.4874C125.817 63.7513 125.739 64.0615 125.739 64.418C125.739 64.7816 125.821 65.1132 125.985 65.4127C126.149 65.7122 126.395 65.951 126.723 66.1293C127.058 66.3004 127.468 66.386 127.953 66.386C128.559 66.386 129.094 66.2576 129.557 66.0009C130.021 65.7442 130.388 65.4305 130.659 65.0597C130.937 64.6889 131.087 64.3288 131.108 63.9795L131.953 64.9314C131.903 65.2308 131.768 65.5624 131.547 65.9261C131.326 66.2897 131.03 66.6391 130.659 66.9742C130.295 67.3022 129.86 67.5768 129.354 67.7978C128.855 68.0117 128.292 68.1187 127.664 68.1187C126.88 68.1187 126.192 67.9654 125.6 67.6588C125.015 67.3522 124.559 66.9422 124.231 66.4288C123.91 65.9082 123.75 65.3271 123.75 64.6854C123.75 64.065 123.871 63.5195 124.113 63.0489C124.356 62.5712 124.705 62.1754 125.161 61.8617C125.618 61.5408 126.167 61.2984 126.808 61.1344C127.45 60.9704 128.167 60.8884 128.958 60.8884H131.258Z" fill="#33332C"/>
<path d="M145.054 65.6587V51.4762H147.043V67.9048H145.225L145.054 65.6587ZM137.267 62.2468V62.0221C137.267 61.138 137.374 60.3358 137.588 59.6156C137.809 58.8883 138.119 58.2644 138.519 57.7439C138.925 57.2233 139.406 56.824 139.962 56.546C140.526 56.2607 141.153 56.1181 141.845 56.1181C142.572 56.1181 143.207 56.2465 143.749 56.5032C144.298 56.7527 144.761 57.12 145.139 57.6048C145.524 58.0826 145.827 58.6601 146.048 59.3375C146.269 60.0149 146.423 60.7814 146.508 61.6371V62.6211C146.43 63.4696 146.276 64.2326 146.048 64.91C145.827 65.5874 145.524 66.1649 145.139 66.6427C144.761 67.1204 144.298 67.4876 143.749 67.7443C143.2 67.9939 142.558 68.1187 141.824 68.1187C141.146 68.1187 140.526 67.9725 139.962 67.6802C139.406 67.3878 138.925 66.9778 138.519 66.4502C138.119 65.9225 137.809 65.3022 137.588 64.5891C137.374 63.8689 137.267 63.0881 137.267 62.2468ZM139.257 62.0221V62.2468C139.257 62.8243 139.314 63.3662 139.428 63.8725C139.549 64.3788 139.734 64.8244 139.984 65.2095C140.233 65.5945 140.551 65.8975 140.936 66.1186C141.321 66.3325 141.781 66.4395 142.316 66.4395C142.972 66.4395 143.51 66.3004 143.931 66.0223C144.358 65.7442 144.701 65.377 144.957 64.9207C145.214 64.4643 145.414 63.9688 145.556 63.434V60.8563C145.471 60.4641 145.346 60.0862 145.182 59.7226C145.025 59.3518 144.818 59.0238 144.562 58.7386C144.312 58.4462 144.002 58.2145 143.631 58.0433C143.267 57.8722 142.836 57.7867 142.337 57.7867C141.795 57.7867 141.328 57.9007 140.936 58.1289C140.551 58.35 140.233 58.6566 139.984 59.0487C139.734 59.4338 139.549 59.883 139.428 60.3964C139.314 60.9027 139.257 61.4446 139.257 62.0221Z" fill="#33332C"/>
<path d="M151.352 62.2468V62.0007C151.352 61.1665 151.473 60.3928 151.715 59.6798C151.958 58.9596 152.307 58.3357 152.763 57.808C153.22 57.2733 153.772 56.8597 154.421 56.5673C155.07 56.2679 155.798 56.1181 156.603 56.1181C157.416 56.1181 158.147 56.2679 158.796 56.5673C159.452 56.8597 160.008 57.2733 160.464 57.808C160.928 58.3357 161.281 58.9596 161.523 59.6798C161.766 60.3928 161.887 61.1665 161.887 62.0007V62.2468C161.887 63.081 161.766 63.8547 161.523 64.5677C161.281 65.2808 160.928 65.9047 160.464 66.4395C160.008 66.9671 159.455 67.3807 158.807 67.6802C158.165 67.9725 157.438 68.1187 156.625 68.1187C155.812 68.1187 155.081 67.9725 154.432 67.6802C153.783 67.3807 153.227 66.9671 152.763 66.4395C152.307 65.9047 151.958 65.2808 151.715 64.5677C151.473 63.8547 151.352 63.081 151.352 62.2468ZM153.33 62.0007V62.2468C153.33 62.8243 153.398 63.3698 153.534 63.8832C153.669 64.3895 153.872 64.8387 154.143 65.2308C154.421 65.623 154.767 65.9332 155.181 66.1614C155.594 66.3824 156.076 66.4929 156.625 66.4929C157.167 66.4929 157.641 66.3824 158.047 66.1614C158.461 65.9332 158.803 65.623 159.074 65.2308C159.345 64.8387 159.548 64.3895 159.684 63.8832C159.826 63.3698 159.898 62.8243 159.898 62.2468V62.0007C159.898 61.4303 159.826 60.892 159.684 60.3857C159.548 59.8723 159.341 59.4195 159.063 59.0273C158.792 58.628 158.45 58.3143 158.036 58.0861C157.63 57.858 157.152 57.7439 156.603 57.7439C156.061 57.7439 155.584 57.858 155.17 58.0861C154.764 58.3143 154.421 58.628 154.143 59.0273C153.872 59.4195 153.669 59.8723 153.534 60.3857C153.398 60.892 153.33 61.4303 153.33 62.0007Z" fill="#33332C"/>
<path fill-rule="evenodd" clip-rule="evenodd" d="M128.472 54.8876L131.472 48.8876L133.472 48.8876L129.5 54.8876L128.472 54.8876Z" fill="#33332C"/>
</svg>
